<?xml version="1.0" encoding="UTF-8" standalone="no"?>
<svg
   viewBox="0 0 448 512"
   version="1.1"
   id="svg4"
   sodipodi:docname="heading.svg"
   inkscape:version="1.1.2 (0a00cf5339, 2022-02-04)"
   xmlns:inkscape="http://www.inkscape.org/namespaces/inkscape"
   xmlns:sodipodi="http://sodipodi.sourceforge.net/DTD/sodipodi-0.dtd"
   xmlns="http://www.w3.org/2000/svg"
   xmlns:svg="http://www.w3.org/2000/svg">
  <defs
     id="defs8" />
  <sodipodi:namedview
     id="namedview6"
     pagecolor="#ffffff"
     bordercolor="#666666"
     borderopacity="1.0"
     inkscape:pageshadow="2"
     inkscape:pageopacity="0.0"
     inkscape:pagecheckerboard="0"
     showgrid="false"
     inkscape:zoom="1.6484375"
     inkscape:cx="224.15166"
     inkscape:cy="256.30332"
     inkscape:window-width="1846"
     inkscape:window-height="1016"
     inkscape:window-x="74"
     inkscape:window-y="27"
     inkscape:window-maximized="1"
     inkscape:current-layer="svg4" />
  <!--! Font Awesome Free 6.2.0 by @fontawesome - https://fontawesome.com License - https://fontawesome.com/license/free (Icons: CC BY 4.0, Fonts: SIL OFL 1.1, Code: MIT License) Copyright 2022 Fonticons, Inc. -->
  <path
     d="M0 64C0 46.3 14.3 32 32 32H80h48c17.7 0 32 14.3 32 32s-14.3 32-32 32H112V208H336V96H320c-17.7 0-32-14.3-32-32s14.3-32 32-32h48 48c17.7 0 32 14.3 32 32s-14.3 32-32 32H400V240 416h16c17.7 0 32 14.3 32 32s-14.3 32-32 32H368 320c-17.7 0-32-14.3-32-32s14.3-32 32-32h16V272H112V416h16c17.7 0 32 14.3 32 32s-14.3 32-32 32H80 32c-17.7 0-32-14.3-32-32s14.3-32 32-32H48V240 96H32C14.3 96 0 81.7 0 64z"
     id="path2"
     style="fill:#f2f2f2" />
</svg>
